HIERARCHY
ROOT Hips
{
	OFFSET 0.00000 0.00000 0.00000
	CHANNELS 6 Xposition Yposition Zposition Zrotation Yrotation Xrotation 
	JOINT LHipJoint
	{
		OFFSET 0 0 0
		CHANNELS 3 Zrotation Yrotation Xrotation
		JOINT LeftUpLeg
		{
			OFFSET 1.78158 -1.79992 1.25746
			CHANNELS 3 Zrotation Yrotation Xrotation
			JOINT LeftLeg
			{
				OFFSET 2.48433 -6.82566 0.00000
				CHANNELS 3 Zrotation Yrotation Xrotation
				JOINT LeftFoot
				{
					OFFSET 2.69722 -7.41057 0.00000
					CHANNELS 3 Zrotation Yrotation Xrotation
					JOINT LeftToeBase
					{
						OFFSET 0.10733 -0.29489 1.75071
						CHANNELS 3 Zrotation Yrotation Xrotation
						End Site
						{
							OFFSET 0.00000 -0.00000 0.90224
						}
					}
				}
			}
		}
	}
	JOINT RHipJoint
	{
		OFFSET 0 0 0
		CHANNELS 3 Zrotation Yrotation Xrotation
		JOINT RightUpLeg
		{
			OFFSET -1.91234 -1.79993 1.25746
			CHANNELS 3 Zrotation Yrotation Xrotation
			JOINT RightLeg
			{
				OFFSET -2.33122 -6.40498 0.00000
				CHANNELS 3 Zrotation Yrotation Xrotation
				JOINT RightFoot
				{
					OFFSET -2.75667 -7.57390 0.00000
					CHANNELS 3 Zrotation Yrotation Xrotation
					JOINT RightToeBase
					{
						OFFSET -0.15946 -0.43811 1.78925
						CHANNELS 3 Zrotation Yrotation Xrotation
						End Site
						{
							OFFSET -0.00000 -0.00000 0.93158
						}
					}
				}
			}
		}
	}
	JOINT LowerBack
	{
		OFFSET 0 0 0
		CHANNELS 3 Zrotation Yrotation Xrotation
		JOINT Spine
		{
			OFFSET -0.02267 2.03993 -0.26238
			CHANNELS 3 Zrotation Yrotation Xrotation
			JOINT Spine1
			{
				OFFSET 0.02263 2.06220 -0.00892
				CHANNELS 3 Zrotation Yrotation Xrotation
				JOINT Neck
				{
					OFFSET 0 0 0
					CHANNELS 3 Zrotation Yrotation Xrotation
					JOINT Neck1
					{
						OFFSET -0.06177 1.95978 0.28606
						CHANNELS 3 Zrotation Yrotation Xrotation
						JOINT Head
						{
							OFFSET 0.08482 1.96576 -0.43252
							CHANNELS 3 Zrotation Yrotation Xrotation
							End Site
							{
								OFFSET 0.02787 2.02739 -0.18071
							}
						}
					}
				}
				JOINT LeftShoulder
				{
					OFFSET 0 0 0
					CHANNELS 3 Zrotation Yrotation Xrotation
					JOINT LeftArm
					{
						OFFSET 3.80978 1.64906 0.29973
						CHANNELS 3 Zrotation Yrotation Xrotation
						JOINT LeftForeArm
						{
							OFFSET 4.93042 -0.00000 0.00000
							CHANNELS 3 Zrotation Yrotation Xrotation
							JOINT LeftHand
							{
								OFFSET 3.68177 -0.00000 0.00000
								CHANNELS 3 Zrotation Yrotation Xrotation
								JOINT LeftFingerBase
								{
									OFFSET 0 0 0
									CHANNELS 3 Zrotation Yrotation Xrotation
									JOINT LeftHandIndex1
									{
										OFFSET 0.72148 -0.00000 0.00000
										CHANNELS 3 Zrotation Yrotation Xrotation
										End Site
										{
											OFFSET 0.58168 -0.00000 0.00000
										}
									}
								}
								JOINT LThumb
								{
									OFFSET 0 0 0
									CHANNELS 3 Zrotation Yrotation Xrotation
									End Site
									{
										OFFSET 0.59056 -0.00000 0.59056
									}
								}
							}
						}
					}
				}
				JOINT RightShoulder
				{
					OFFSET 0 0 0
					CHANNELS 3 Zrotation Yrotation Xrotation
					JOINT RightArm
					{
						OFFSET -3.49270 1.85636 0.09297
						CHANNELS 3 Zrotation Yrotation Xrotation
						JOINT RightForeArm
						{
							OFFSET -5.07905 -0.00000 -0.00000
							CHANNELS 3 Zrotation Yrotation Xrotation
							JOINT RightHand
							{
								OFFSET -3.54394 -0.00000 0.00000
								CHANNELS 3 Zrotation Yrotation Xrotation
								JOINT RightFingerBase
								{
									OFFSET 0 0 0
									CHANNELS 3 Zrotation Yrotation Xrotation
									JOINT RightHandIndex1
									{
										OFFSET -0.68116 -0.00000 0.00000
										CHANNELS 3 Zrotation Yrotation Xrotation
										End Site
										{
											OFFSET -0.54917 -0.00000 0.00000
										}
									}
								}
								JOINT RThumb
								{
									OFFSET 0 0 0
									CHANNELS 3 Zrotation Yrotation Xrotation
									End Site
									{
										OFFSET -0.55755 -0.00000 0.55755
									}
								}
							}
						}
					}
				}
			}
		}
	}
}
MOTION
Frames: 13
Frame Time: .0083333
-9.9855 17.9688 -16.4465 -174.1000 85.8209 -170.1200 0.0000 0.0000 0.0000 -13.5153 -13.9283 -1.5690 1.3311 7.3060 20.6250 1.4202 -2.6867 -21.8146 0.4238 4.1780 11.5780 0.0000 0.0000 0.0000 15.4933 -4.0914 6.2156 0.0000 -0.0000 0.0000 0.3811 -14.4323 -15.4485 -0.0369 1.2406 -3.4111 0.3471 -0.5134 2.6733 2.0413 -0.5005 -4.1215 1.9610 -0.1867 -5.7560 -7.9383 -5.1463 -26.8915 3.5408 -4.8301 34.2455 1.9406 -2.2793 17.4402 -0.0000 -0.0000 0.0000 -89.4074 -19.3971 55.6768 78.6864 -59.5108 -50.2182 -0.0000 0.0000 -36.4964 44.5557 18.3159 17.1931 -7.1250 0.0000 -0.0000 17.7393 54.0108 4.0265 -0.0000 -0.0000 0.0000 80.7883 20.9862 45.9554 -79.0328 59.5406 -50.5168 0.0000 0.0000 7.5993 -32.2400 -38.5829 21.4717 7.1250 -0.0000 -0.0000 4.5544 -73.2633 -3.0516
-9.9969 17.9721 -16.4462 -174.5520 85.8483 -170.4900 0.0000 0.0000 0.0000 -13.5208 -13.9011 -1.7147 1.3299 7.3027 20.6154 1.4105 -2.6889 -21.7367 0.4281 4.1993 11.6379 0.0000 0.0000 0.0000 15.4604 -4.0297 6.0907 0.0000 0.0000 -0.0000 0.3890 -14.4593 -15.3702 -0.0381 1.2591 -3.4621 0.3649 -0.5850 2.7230 2.0495 -0.5972 -4.0638 1.9668 -0.2364 -5.7208 -7.8103 -5.0551 -27.2610 3.4925 -4.7142 34.1686 1.9164 -2.2245 17.4705 -0.0000 0.0000 0.0000 -89.1955 -20.3647 55.3110 77.2577 -59.3775 -48.9879 -0.0000 0.0000 -36.8306 44.8169 18.3716 17.3890 -7.1250 0.0000 -0.0000 18.0600 54.1475 4.1641 -0.0000 0.0000 0.0000 80.7217 22.5187 46.4443 -77.3715 59.3887 -49.0858 0.0000 0.0000 7.3826 -32.1069 -38.8517 21.4853 7.1250 -0.0000 -0.0000 5.0845 -73.4864 -3.4319
-10.0086 17.9769 -16.4452 -174.9760 85.9545 -170.8030 0.0000 0.0000 0.0000 -13.5239 -13.8217 -1.8717 1.3240 7.2872 20.5689 1.4011 -2.6641 -21.6673 0.4249 4.1836 11.5937 0.0000 0.0000 0.0000 15.4217 -3.8808 5.9471 0.0000 -0.0000 0.0000 0.3924 -14.4645 -15.3225 -0.0344 1.1965 -3.2895 0.3729 -0.6140 2.7899 2.0442 -0.6372 -4.0237 1.9603 -0.2575 -5.7158 -7.6737 -4.9675 -27.5818 3.4380 -4.6116 34.0235 1.8842 -2.1756 17.4535 -0.0000 0.0000 0.0000 -88.9055 -21.3654 55.0157 75.8103 -59.2254 -47.7434 -0.0000 0.0000 -37.2123 44.9996 18.4798 17.5868 -7.1250 0.0000 -0.0000 18.3009 54.3304 4.3055 -0.0000 0.0000 0.0000 80.6797 24.0897 46.8758 -75.4988 59.1903 -47.4757 0.0000 0.0000 7.2980 -32.1444 -39.1364 21.6340 7.1250 -0.0000 -0.0000 5.3657 -73.7838 -3.6564
-10.0201 17.9833 -16.4442 -175.3660 86.0862 -171.0480 0.0000 0.0000 0.0000 -13.5171 -13.7400 -2.0511 1.3154 7.2644 20.5009 1.3920 -2.6185 -21.6034 0.4204 4.1618 11.5322 0.0000 0.0000 0.0000 15.3876 -3.6947 5.7684 0.0000 -0.0000 0.0000 0.3959 -14.4749 -15.2846 -0.0307 1.1315 -3.1107 0.3859 -0.6186 2.8627 2.0313 -0.6436 -4.0060 1.9410 -0.2620 -5.7391 -7.5264 -4.8820 -27.8498 3.3553 -4.5112 33.8298 1.8364 -2.1312 17.3975 -0.0000 0.0000 0.0000 -88.5803 -22.3425 54.7856 74.4654 -59.0682 -46.5887 -0.0000 0.0000 -37.5672 45.0721 18.6024 17.7344 -7.1250 0.0000 -0.0000 18.4147 54.5032 4.4124 -0.0000 0.0000 0.0000 80.6639 25.6564 47.2132 -73.4439 58.9385 -45.7131 0.0000 0.0000 7.3573 -32.4050 -39.3123 21.9069 7.1250 -0.0000 -0.0000 5.1483 -74.0506 -3.5377
-10.0314 17.9910 -16.4442 -175.7740 86.2031 -171.2860 0.0000 0.0000 0.0000 -13.5082 -13.7088 -2.2442 1.3061 7.2397 20.4274 1.3840 -2.5438 -21.5557 0.4207 4.1630 11.5356 0.0000 0.0000 0.0000 15.3567 -3.5136 5.5555 0.0000 0.0000 -0.0000 0.4022 -14.5055 -15.2392 -0.0299 1.1171 -3.0711 0.4127 -0.6169 2.9354 2.0151 -0.6400 -4.0068 1.9100 -0.2618 -5.7822 -7.3762 -4.7970 -28.0712 3.2417 -4.4044 33.6157 1.7759 -2.0889 17.3189 -0.0000 0.0000 0.0000 -88.2658 -23.2662 54.5983 73.2656 -58.9150 -45.5604 -0.0000 0.0000 -37.8211 45.0161 18.6991 17.7852 -7.1250 0.0000 -0.0000 18.3690 54.6101 4.4495 -0.0000 0.0000 0.0000 80.6776 27.1828 47.4503 -71.2503 58.6291 -43.8370 0.0000 0.0000 7.5072 -32.8281 -39.3047 22.2282 7.1250 -0.0000 -0.0000 4.4232 -74.1923 -3.0525
-10.0424 17.9991 -16.4461 -176.2610 86.2954 -171.5970 0.0000 0.0000 0.0000 -13.5140 -13.7577 -2.4260 1.2976 7.2171 20.3603 1.3794 -2.4231 -21.5444 0.4281 4.1991 11.6374 0.0000 0.0000 0.0000 15.3200 -3.3539 5.3279 0.0000 0.0000 -0.0000 0.4111 -14.5528 -15.1827 -0.0321 1.1562 -3.1786 0.4533 -0.6174 3.0080 1.9973 -0.6383 -4.0150 1.8698 -0.2630 -5.8332 -7.2372 -4.7131 -28.2585 3.1125 -4.2895 33.4097 1.7132 -2.0472 17.2368 -0.0000 0.0000 0.0000 -88.0002 -24.1465 54.4228 72.1493 -58.7611 -44.6051 -0.0000 0.0000 -37.9327 44.8228 18.7467 17.7136 -7.1250 0.0000 -0.0000 18.1471 54.6192 4.3971 -0.0000 0.0000 0.0000 80.7282 28.6475 47.6055 -68.9557 58.2587 -41.8816 0.0000 0.0000 7.6681 -33.2617 -39.1242 22.4841 7.1250 -0.0000 -0.0000 3.4645 -74.1641 -2.3883
-10.0532 18.0070 -16.4502 -176.8290 86.3820 -172.0050 0.0000 0.0000 0.0000 -13.5472 -13.8788 -2.5701 1.2908 7.1989 20.3060 1.3795 -2.2456 -21.5858 0.4402 4.2574 11.8019 0.0000 0.0000 0.0000 15.2702 -3.2048 5.1157 0.0000 -0.0000 0.0000 0.4201 -14.6002 -15.1245 -0.0350 1.2072 -3.3191 0.5015 -0.6171 3.0855 1.9778 -0.6353 -4.0179 1.8235 -0.2641 -5.8815 -7.1241 -4.6337 -28.4236 2.9932 -4.1733 33.2318 1.6609 -2.0065 17.1662 0.0000 0.0000 0.0000 -87.8098 -25.0276 54.2300 70.9713 -58.5866 -43.5988 -0.0000 0.0000 -37.9157 44.4896 18.7504 17.5245 -7.1250 0.0000 -0.0000 17.7491 54.5376 4.2601 0.0000 0.0000 0.0000 80.8222 30.0436 47.7080 -66.5858 57.8236 -39.8709 0.0000 0.0000 7.7813 -33.6853 -38.7170 22.6316 7.1250 -0.0000 -0.0000 2.2737 -73.9012 -1.5543
-10.0641 18.0138 -16.4560 -177.3840 86.4919 -172.4320 0.0000 0.0000 0.0000 -13.6052 -14.0297 -2.6632 1.2858 7.1855 20.2662 1.3844 -2.0204 -21.6786 0.4515 4.3107 11.9524 0.0000 0.0000 0.0000 15.2096 -3.0431 4.9460 0.0000 0.0000 -0.0000 0.4261 -14.6287 -15.0803 -0.0354 1.2140 -3.3379 0.5495 -0.6061 3.1737 1.9575 -0.6185 -4.0057 1.7752 -0.2587 -5.9205 -7.0473 -4.5644 -28.5718 2.9064 -4.0675 33.0887 1.6282 -1.9692 17.1135 0.0000 -0.0000 0.0000 -87.7113 -25.9692 54.0009 69.5608 -58.3611 -42.3966 -0.0000 0.0000 -37.8365 44.0232 18.7389 17.2488 -7.1250 0.0000 -0.0000 17.1921 54.4039 4.0635 0.0000 -0.0000 0.0000 80.9554 31.3755 47.7818 -64.1600 57.3203 -37.8233 0.0000 0.0000 7.8369 -33.7133 -38.5426 22.5757 7.1250 -0.0000 -0.0000 2.0382 -73.7339 -1.3859
-10.0749 18.0194 -16.4622 -177.7670 86.6427 -172.7260 0.0000 0.0000 0.0000 -13.6697 -14.1535 -2.7135 1.2827 7.1770 20.2410 1.3919 -1.7775 -21.7988 0.4551 4.3277 12.0004 0.0000 0.0000 0.0000 15.1509 -2.8536 4.8316 0.0000 -0.0000 0.0000 0.4270 -14.6271 -15.0606 -0.0312 1.1395 -3.1328 0.5911 -0.5757 3.2749 1.9395 -0.5765 -3.9744 1.7307 -0.2407 -5.9474 -7.0104 -4.5113 -28.7019 2.8626 -3.9837 32.9742 1.6177 -1.9389 17.0760 0.0000 -0.0000 0.0000 -87.7188 -27.0227 53.7319 67.7889 -58.0513 -40.8905 -0.0000 0.0000 -37.7836 43.4476 18.7459 16.9309 -7.1250 0.0000 -0.0000 16.5142 54.2670 3.8405 0.0000 -0.0000 0.0000 81.1059 32.6527 47.8348 -61.7052 56.7475 -35.7636 0.0000 0.0000 7.8708 -33.4491 -38.6011 22.3990 7.1250 -0.0000 -0.0000 2.5533 -73.7014 -1.7344
-10.0858 18.0237 -16.4674 -177.8090 86.8263 -172.7100 0.0000 0.0000 0.0000 -13.7148 -14.2055 -2.7479 1.2813 7.1733 20.2298 1.3984 -1.5594 -21.9076 0.4478 4.2933 11.9034 0.0000 0.0000 0.0000 15.1108 -2.6415 4.7653 0.0000 0.0000 -0.0000 0.4231 -14.5964 -15.0653 -0.0232 0.9837 -2.7040 0.6233 -0.5254 3.3856 1.9287 -0.5084 -3.9250 1.6966 -0.2095 -5.9609 -7.0116 -4.4788 -28.8102 2.8592 -3.9289 32.8731 1.6258 -1.9187 17.0450 -0.0000 0.0000 0.0000 -87.8476 -28.2148 53.4355 65.6142 -57.6293 -39.0494 -0.0000 0.0000 -37.8270 42.8141 18.7904 16.6162 -7.1250 0.0000 -0.0000 15.7793 54.1640 3.6228 -0.0000 0.0000 0.0000 81.2391 33.8858 47.8617 -59.2611 56.1098 -33.7270 0.0000 0.0000 7.9370 -33.2709 -38.6269 22.2740 7.1250 -0.0000 -0.0000 2.8848 -73.6655 -1.9575
-10.0967 18.0272 -16.4708 -177.4120 87.0117 -172.2750 0.0000 0.0000 0.0000 -13.7201 -14.1718 -2.7997 1.2816 7.1741 20.2321 1.4006 -1.4051 -21.9663 0.4320 4.2179 11.6906 0.0000 0.0000 0.0000 15.1008 -2.4321 4.7242 0.0000 -0.0000 0.0000 0.4161 -14.5465 -15.0837 -0.0146 0.7799 -2.1434 0.6451 -0.4641 3.4975 1.9299 -0.4260 -3.8600 1.6792 -0.1706 -5.9589 -7.0466 -4.4682 -28.8962 2.8871 -3.9041 32.7666 1.6469 -1.9101 17.0104 0.0000 0.0000 0.0000 -88.1103 -29.5457 53.1379 63.0864 -57.0778 -36.9208 -0.0000 0.0000 -37.9874 42.1995 18.8610 16.3370 -7.1250 0.0000 -0.0000 15.0746 54.0998 3.4313 0.0000 0.0000 0.0000 81.3238 35.0870 47.8510 -56.8732 55.4175 -31.7528 0.0000 0.0000 8.0749 -33.1903 -38.7732 22.2764 7.1250 -0.0000 -0.0000 3.1839 -73.7854 -2.1688
-10.1078 18.0305 -16.4721 -176.6520 87.1606 -171.4770 0.0000 0.0000 0.0000 -13.6807 -14.0706 -2.8962 1.2834 7.1790 20.2467 1.3964 -1.3359 -21.9515 0.4144 4.1324 11.4494 0.0000 0.0000 0.0000 15.1190 -2.2570 4.6789 0.0000 -0.0000 0.0000 0.4084 -14.4899 -15.1009 -0.0079 0.5744 -1.5785 0.6562 -0.4058 3.6024 1.9448 -0.3480 -3.7813 1.6821 -0.1331 -5.9381 -7.1131 -4.4787 -28.9672 2.9400 -3.9065 32.6376 1.6781 -1.9128 16.9645 0.0000 -0.0000 0.0000 -88.5059 -30.9973 52.8751 60.3122 -56.3926 -34.6010 -0.0000 0.0000 -38.2329 41.6954 18.9215 16.1124 -7.1250 0.0000 -0.0000 14.4991 54.0511 3.2785 0.0000 -0.0000 0.0000 81.3492 36.2706 47.7957 -54.5757 54.6821 -29.8694 0.0000 0.0000 8.2913 -33.1829 -39.0860 22.4069 7.1250 -0.0000 -0.0000 3.5550 -74.0980 -2.4457
-10.1196 18.0339 -16.4720 -175.8140 87.2467 -170.5870 0.0000 0.0000 0.0000 -13.6099 -13.9407 -3.0502 1.2865 7.1874 20.2717 1.3859 -1.3501 -21.8628 0.4034 4.0777 11.2955 0.0000 0.0000 0.0000 15.1503 -2.1377 4.6046 0.0000 -0.0000 0.0000 0.4019 -14.4364 -15.1044 -0.0039 0.4053 -1.1135 0.6558 -0.3614 3.6972 1.9696 -0.2894 -3.6882 1.7030 -0.1047 -5.8957 -7.2112 -4.5091 -29.0364 3.0198 -3.9342 32.4725 1.7200 -1.9258 16.9036 -0.0000 0.0000 0.0000 -89.0102 -32.5473 52.6905 57.4034 -55.5774 -32.1897 -0.0000 0.0000 -38.5038 41.3808 18.9235 15.9457 -7.1250 0.0000 -0.0000 14.1373 53.9778 3.1686 -0.0000 0.0000 0.0000 81.3338 37.4538 47.6963 -52.3740 53.9092 -28.0815 0.0000 0.0000 8.5616 -33.2199 -39.5165 22.6215 7.1250 -0.0000 -0.0000 4.0101 -74.5430 -2.7974
